<svg width="34" height="34" viewBox="0 0 34 34 " fill = "none" xmlns="http://www.w3.org/2000/svg">
<path d="M15.4776 3.80597H4.03151C3.16417 3.80597 2.33235 4.15052 1.71905 4.76382C1.10574 5.37713 0.761194 6.20894 0.761194 7.07629V29.9685C0.761194 30.8358 1.10574 31.6677 1.71905 32.281C2.33235 32.8943 3.16417 33.2388 4.03151 33.2388H26.9237C27.7911 33.2388 28.6229 32.8943 29.2362 32.281C29.8495 31.6677 30.194 30.8358 30.194 29.9685V18.5224" stroke="black" stroke-width="1.5" stroke-linecap="round" stroke-linejoin="round"/>
<path d="M27.5128 1.78827C28.1419 1.13064 28.995 0.761194 29.8846 0.761194C30.7742 0.761194 31.6274 1.13064 32.2564 1.78827C32.8854 2.44589 33.2388 3.33783 33.2388 4.26785C33.2388 5.19787 32.8854 6.0898 32.2564 6.74743L17.2352 22.4514L10.9104 24.1045L12.4916 17.4923L27.5128 1.78827Z" stroke="black" stroke-width="1.5" stroke-linecap="round" stroke-linejoin="round"/>
</svg>